<svg xmlns="http://www.w3.org/2000/svg" width="34" height="146" viewBox="0 0 34 146" fill="none"><line x1="16.3418" y1="14.9512" x2="16.3418" y2="145.951" stroke="#151515" stroke-width="2" stroke-dasharray="4 4"></line><rect x="0.132812" width="33" height="31.9454" fill="#0072BC"></rect><path fill-rule="evenodd" clip-rule="evenodd" d="M11.8989 13.8842C10.391 14.477 9.02088 15.346 7.86679 16.4414C12.214 19.2174 14.0743 21.0738 16.6551 24.7832C19.165 20.8292 21.0536 18.9761 25.4434 16.4415C24.2893 15.346 22.9192 14.4771 21.4113 13.8842C21.2681 13.8279 21.1241 13.7742 20.9791 13.7232C22.1772 12.6843 23.5865 11.7342 25.4434 10.662C24.2893 9.56655 22.9192 8.69759 21.4113 8.10473C19.9034 7.51187 18.2872 7.20673 16.6551 7.20673C15.0229 7.20672 13.4068 7.51186 11.8989 8.10471C10.391 8.69756 9.02088 9.56652 7.86679 10.662C9.63824 11.7931 10.9967 12.7716 12.1593 13.785C12.0722 13.8171 11.9853 13.8502 11.8989 13.8842Z" fill="#43C0B7"></path></svg>